<mxfile host="app.diagrams.net" modified="2024-04-29T18:21:45.284Z" agent="Mozilla/5.0 (Windows NT 10.0; Win64; x64) AppleWebKit/537.36 (KHTML, like Gecko) Chrome/124.0.0.0 Safari/537.36" etag="CDa24rToZOytNelEg2kz" version="24.2.7" type="google">
  <diagram name="Page-1" id="2YBvvXClWsGukQMizWep">
    <mxGraphModel grid="1" page="1" gridSize="10" guides="1" tooltips="1" connect="1" arrows="1" fold="1" pageScale="1" pageWidth="850" pageHeight="1100" math="0" shadow="0">
      <root>
        <mxCell id="0" />
        <mxCell id="1" parent="0" />
        <mxCell id="buvlqqXlpn2Jo7uIdP7t-36" style="edgeStyle=orthogonalEdgeStyle;rounded=0;orthogonalLoop=1;jettySize=auto;html=1;entryX=0.982;entryY=0.552;entryDx=0;entryDy=0;entryPerimeter=0;exitX=0.499;exitY=1.007;exitDx=0;exitDy=0;exitPerimeter=0;" edge="1" parent="1" source="uXF_fPcZE920ryY0srwN-89" target="CK8r0wE4NduhVeLigVdj-72">
          <mxGeometry relative="1" as="geometry">
            <mxPoint x="530" y="280" as="targetPoint" />
            <Array as="points">
              <mxPoint x="682" y="280" />
            </Array>
          </mxGeometry>
        </mxCell>
        <mxCell id="buvlqqXlpn2Jo7uIdP7t-27" style="edgeStyle=orthogonalEdgeStyle;rounded=0;orthogonalLoop=1;jettySize=auto;html=1;shape=link;" edge="1" parent="1" source="buvlqqXlpn2Jo7uIdP7t-25">
          <mxGeometry relative="1" as="geometry">
            <mxPoint x="550" y="410" as="targetPoint" />
            <mxPoint x="540" y="473" as="sourcePoint" />
            <Array as="points">
              <mxPoint x="500" y="410" />
            </Array>
          </mxGeometry>
        </mxCell>
        <mxCell id="uXF_fPcZE920ryY0srwN-75" style="edgeStyle=orthogonalEdgeStyle;rounded=0;orthogonalLoop=1;jettySize=auto;html=1;entryX=0.063;entryY=0.56;entryDx=0;entryDy=0;entryPerimeter=0;shape=link;exitX=1.036;exitY=0.028;exitDx=0;exitDy=0;exitPerimeter=0;" edge="1" parent="1" source="uXF_fPcZE920ryY0srwN-82" target="uXF_fPcZE920ryY0srwN-70">
          <mxGeometry relative="1" as="geometry">
            <Array as="points">
              <mxPoint x="403" y="721" />
              <mxPoint x="403" y="722" />
            </Array>
          </mxGeometry>
        </mxCell>
        <mxCell id="CK8r0wE4NduhVeLigVdj-146" value="" style="endArrow=classic;startArrow=classic;html=1;rounded=0;shape=flexArrow;width=3.5555555555555554;startSize=5.4;startWidth=10.716049382716049;endWidth=10.716049382716049;endSize=5.4;fillColor=#1A1A1A;strokeColor=none;" edge="1" parent="1">
          <mxGeometry width="50" height="50" relative="1" as="geometry">
            <mxPoint x="409.91" y="230" as="sourcePoint" />
            <mxPoint x="409.91" y="150" as="targetPoint" />
          </mxGeometry>
        </mxCell>
        <mxCell id="CK8r0wE4NduhVeLigVdj-1" value="" style="pointerEvents=1;verticalLabelPosition=bottom;shadow=0;dashed=0;align=center;html=1;verticalAlign=top;shape=mxgraph.electrical.signal_sources.source;aspect=fixed;points=[[0.5,0,0],[1,0.5,0],[0.5,1,0],[0,0.5,0]];elSignalType=ac;strokeColor=#1A1A1A;" vertex="1" parent="1">
          <mxGeometry x="275.22" y="1010" width="71.78" height="71.78" as="geometry" />
        </mxCell>
        <mxCell id="CK8r0wE4NduhVeLigVdj-4" value="&lt;font color=&quot;#1a1a1a&quot; style=&quot;font-size: 18px;&quot;&gt;&lt;b style=&quot;&quot;&gt;230V&lt;/b&gt;&lt;/font&gt;&lt;div&gt;&lt;font color=&quot;#1a1a1a&quot; style=&quot;font-size: 18px;&quot;&gt;&lt;b style=&quot;&quot;&gt;netstroom&lt;/b&gt;&lt;/font&gt;&lt;/div&gt;" style="text;strokeColor=none;align=center;fillColor=none;html=1;verticalAlign=middle;whiteSpace=wrap;rounded=0;" vertex="1" parent="1">
          <mxGeometry x="356.10999999999996" y="1050" width="60" height="40" as="geometry" />
        </mxCell>
        <mxCell id="buvlqqXlpn2Jo7uIdP7t-6" style="edgeStyle=orthogonalEdgeStyle;rounded=0;orthogonalLoop=1;jettySize=auto;html=1;shape=link;" edge="1" parent="1" source="CK8r0wE4NduhVeLigVdj-72">
          <mxGeometry relative="1" as="geometry">
            <mxPoint x="260" y="410" as="targetPoint" />
          </mxGeometry>
        </mxCell>
        <mxCell id="CK8r0wE4NduhVeLigVdj-72" value="" style="verticalLabelPosition=bottom;verticalAlign=top;html=1;shape=mxgraph.basic.rect;fillColor2=none;strokeWidth=1;size=20;indent=5;fillColor=#FFFFFF;strokeColor=#1A1A1A;" vertex="1" parent="1">
          <mxGeometry x="322.9800000000001" y="230" width="180" height="90" as="geometry" />
        </mxCell>
        <mxCell id="CK8r0wE4NduhVeLigVdj-74" value="" style="group;fillColor=#1A1A1A;container=0;" connectable="0" vertex="1" parent="1">
          <mxGeometry x="621.78" y="380" width="110.59" height="60" as="geometry" />
        </mxCell>
        <mxCell id="CK8r0wE4NduhVeLigVdj-88" value="&lt;div&gt;&lt;span style=&quot;color: rgb(26, 26, 26); background-color: initial;&quot;&gt;&lt;font style=&quot;font-size: 8px;&quot;&gt;JST-SM&lt;/font&gt;&lt;/span&gt;&lt;br&gt;&lt;/div&gt;" style="text;html=1;align=center;verticalAlign=middle;resizable=0;points=[];autosize=1;strokeColor=none;fillColor=none;" vertex="1" parent="1">
          <mxGeometry x="546.11" y="630" width="50" height="30" as="geometry" />
        </mxCell>
        <mxCell id="CK8r0wE4NduhVeLigVdj-89" value="&lt;div&gt;&lt;span style=&quot;color: rgb(26, 26, 26); background-color: initial;&quot;&gt;&lt;font style=&quot;font-size: 8px;&quot;&gt;JST-SM&lt;/font&gt;&lt;/span&gt;&lt;br&gt;&lt;/div&gt;" style="text;html=1;align=center;verticalAlign=middle;resizable=0;points=[];autosize=1;strokeColor=none;fillColor=none;rotation=0;" vertex="1" parent="1">
          <mxGeometry x="556.1100000000001" y="705" width="50" height="30" as="geometry" />
        </mxCell>
        <mxCell id="CK8r0wE4NduhVeLigVdj-99" value="&lt;font color=&quot;#1a1a1a&quot;&gt;&lt;b&gt;ledstrip&lt;br&gt;5A&lt;/b&gt;&lt;/font&gt;" style="text;html=1;align=center;verticalAlign=middle;resizable=0;points=[];autosize=1;strokeColor=none;fillColor=none;" vertex="1" parent="1">
          <mxGeometry x="273.56000000000006" y="735" width="70" height="40" as="geometry" />
        </mxCell>
        <mxCell id="CK8r0wE4NduhVeLigVdj-131" value="&lt;font color=&quot;#ff0000&quot; style=&quot;font-size: 12px;&quot;&gt;&lt;i style=&quot;&quot;&gt;&lt;b style=&quot;&quot;&gt;5V&lt;/b&gt;&lt;/i&gt;&lt;/font&gt;" style="text;html=1;align=center;verticalAlign=middle;resizable=0;points=[];autosize=1;strokeColor=none;fillColor=none;" vertex="1" parent="1">
          <mxGeometry x="675" y="490" width="40" height="30" as="geometry" />
        </mxCell>
        <mxCell id="CK8r0wE4NduhVeLigVdj-133" value="&lt;span style=&quot;font-size: 8px;&quot;&gt;&lt;b style=&quot;&quot;&gt;&lt;font color=&quot;#ffffff&quot;&gt;Vin&lt;/font&gt;&lt;/b&gt;&lt;/span&gt;" style="text;html=1;align=center;verticalAlign=middle;resizable=0;points=[];autosize=1;strokeColor=none;fillColor=none;" vertex="1" parent="1">
          <mxGeometry x="661.78" y="420" width="40" height="30" as="geometry" />
        </mxCell>
        <mxCell id="buvlqqXlpn2Jo7uIdP7t-12" style="edgeStyle=orthogonalEdgeStyle;rounded=0;orthogonalLoop=1;jettySize=auto;html=1;shape=link;" edge="1" parent="1" source="CK8r0wE4NduhVeLigVdj-142">
          <mxGeometry relative="1" as="geometry">
            <mxPoint x="170" y="410" as="targetPoint" />
            <Array as="points">
              <mxPoint x="356" y="70" />
              <mxPoint x="150" y="70" />
              <mxPoint x="150" y="410" />
            </Array>
          </mxGeometry>
        </mxCell>
        <mxCell id="CK8r0wE4NduhVeLigVdj-142" value="&lt;b&gt;&lt;font color=&quot;#ffffff&quot; style=&quot;font-size: 10px;&quot;&gt;Knop&lt;/font&gt;&lt;/b&gt;" style="ellipse;whiteSpace=wrap;html=1;aspect=fixed;fillColor=#3399FF;strokeColor=none;" vertex="1" parent="1">
          <mxGeometry x="336.11" y="110" width="40" height="40" as="geometry" />
        </mxCell>
        <mxCell id="buvlqqXlpn2Jo7uIdP7t-13" style="edgeStyle=orthogonalEdgeStyle;rounded=0;orthogonalLoop=1;jettySize=auto;html=1;shape=link;" edge="1" parent="1" source="CK8r0wE4NduhVeLigVdj-143">
          <mxGeometry relative="1" as="geometry">
            <mxPoint x="180" y="410" as="targetPoint" />
            <Array as="points">
              <mxPoint x="410" y="70" />
              <mxPoint x="150" y="70" />
              <mxPoint x="150" y="410" />
            </Array>
          </mxGeometry>
        </mxCell>
        <mxCell id="CK8r0wE4NduhVeLigVdj-143" value="&lt;b&gt;&lt;font color=&quot;#ffffff&quot; style=&quot;font-size: 10px;&quot;&gt;Knop&lt;/font&gt;&lt;/b&gt;" style="ellipse;whiteSpace=wrap;html=1;aspect=fixed;fillColor=#CC0000;strokeColor=none;" vertex="1" parent="1">
          <mxGeometry x="389.99999999999994" y="110" width="40" height="40" as="geometry" />
        </mxCell>
        <mxCell id="buvlqqXlpn2Jo7uIdP7t-14" style="edgeStyle=orthogonalEdgeStyle;rounded=0;orthogonalLoop=1;jettySize=auto;html=1;shape=link;" edge="1" parent="1" source="CK8r0wE4NduhVeLigVdj-144">
          <mxGeometry relative="1" as="geometry">
            <mxPoint x="170" y="410" as="targetPoint" />
            <Array as="points">
              <mxPoint x="461" y="70" />
              <mxPoint x="150" y="70" />
              <mxPoint x="150" y="410" />
            </Array>
          </mxGeometry>
        </mxCell>
        <mxCell id="CK8r0wE4NduhVeLigVdj-144" value="&lt;b&gt;&lt;font color=&quot;#ffffff&quot; style=&quot;font-size: 10px;&quot;&gt;Knop&lt;/font&gt;&lt;/b&gt;" style="ellipse;whiteSpace=wrap;html=1;aspect=fixed;fillColor=#00CC00;strokeColor=none;" vertex="1" parent="1">
          <mxGeometry x="441.10999999999996" y="110" width="40" height="40" as="geometry" />
        </mxCell>
        <mxCell id="buvlqqXlpn2Jo7uIdP7t-4" style="edgeStyle=orthogonalEdgeStyle;rounded=0;orthogonalLoop=1;jettySize=auto;html=1;shape=link;fillColor=#1A1A1A;strokeColor=default;" edge="1" parent="1" source="itszNi9ZeUtjTC_FfjUi-5">
          <mxGeometry relative="1" as="geometry">
            <mxPoint x="500" y="790" as="targetPoint" />
            <Array as="points">
              <mxPoint x="150" y="410" />
              <mxPoint x="150" y="790" />
              <mxPoint x="490" y="790" />
            </Array>
          </mxGeometry>
        </mxCell>
        <mxCell id="itszNi9ZeUtjTC_FfjUi-5" value="&lt;font style=&quot;font-size: 8px;&quot;&gt;&lt;b style=&quot;&quot;&gt;&lt;font color=&quot;#ffffff&quot;&gt;GND&lt;/font&gt;&lt;/b&gt;&lt;br&gt;&lt;/font&gt;" style="text;html=1;align=center;verticalAlign=middle;resizable=0;points=[];autosize=1;strokeColor=none;fillColor=none;" vertex="1" parent="1">
          <mxGeometry x="620" y="395" width="40" height="30" as="geometry" />
        </mxCell>
        <mxCell id="3ZnizcBf5uiBhAQqWF0o-3" value="&lt;font color=&quot;#1a1a1a&quot;&gt;&lt;span style=&quot;font-size: 8px;&quot;&gt;schroefklemmen x3&lt;/span&gt;&lt;/font&gt;" style="text;html=1;align=center;verticalAlign=middle;resizable=0;points=[];autosize=1;strokeColor=none;fillColor=none;" vertex="1" parent="1">
          <mxGeometry x="302.4099999999999" y="980" width="90" height="30" as="geometry" />
        </mxCell>
        <mxCell id="CK8r0wE4NduhVeLigVdj-39" value="&lt;font color=&quot;#ffffff&quot; style=&quot;font-size: 14px;&quot;&gt;&lt;b style=&quot;&quot;&gt;led&lt;br&gt;strip&lt;/b&gt;&lt;/font&gt;&lt;div&gt;&lt;font color=&quot;#ffffff&quot; style=&quot;font-size: 14px;&quot;&gt;&lt;b&gt;&lt;br&gt;&lt;/b&gt;&lt;/font&gt;&lt;/div&gt;&lt;div&gt;&lt;font color=&quot;#ffffff&quot; style=&quot;font-size: 14px;&quot;&gt;&lt;b style=&quot;&quot;&gt;5V&lt;/b&gt;&lt;/font&gt;&lt;/div&gt;" style="text;html=1;align=center;verticalAlign=middle;resizable=0;points=[];autosize=1;strokeColor=none;fillColor=none;" vertex="1" parent="1">
          <mxGeometry x="233.61" y="650" width="50" height="80" as="geometry" />
        </mxCell>
        <mxCell id="b6E_NDg8cZOG375bm2oY-10" value="&lt;font color=&quot;#ffffff&quot;&gt;&lt;span style=&quot;font-size: 8px;&quot;&gt;&lt;b&gt;&amp;nbsp;5&lt;/b&gt;&lt;/span&gt;&lt;/font&gt;" style="text;html=1;align=center;verticalAlign=middle;resizable=0;points=[];autosize=1;strokeColor=none;fillColor=none;" vertex="1" parent="1">
          <mxGeometry x="474.99999999999994" y="60" width="30" height="30" as="geometry" />
        </mxCell>
        <mxCell id="b6E_NDg8cZOG375bm2oY-11" value="&lt;font color=&quot;#ffffff&quot;&gt;&lt;span style=&quot;font-size: 8px;&quot;&gt;&lt;b&gt;2&lt;/b&gt;&lt;/span&gt;&lt;/font&gt;" style="text;html=1;align=center;verticalAlign=middle;resizable=0;points=[];autosize=1;strokeColor=none;fillColor=none;" vertex="1" parent="1">
          <mxGeometry x="354.90999999999997" y="60" width="30" height="30" as="geometry" />
        </mxCell>
        <mxCell id="uXF_fPcZE920ryY0srwN-26" value="" style="group;rotation=0;" vertex="1" connectable="0" parent="1">
          <mxGeometry x="261.10999999999996" y="860" width="100.00000000000003" height="97.94999999999993" as="geometry" />
        </mxCell>
        <mxCell id="uXF_fPcZE920ryY0srwN-7" value="" style="whiteSpace=wrap;html=1;aspect=fixed;rotation=0;" vertex="1" parent="uXF_fPcZE920ryY0srwN-26">
          <mxGeometry width="95.89" height="95.89" as="geometry" />
        </mxCell>
        <mxCell id="8mbKC0PbR0wMGEWIr_28-6" value="&lt;b style=&quot;&quot;&gt;&lt;font color=&quot;#1a1a1a&quot;&gt;voeding 5V&lt;/font&gt;&lt;/b&gt;&lt;div&gt;&lt;b style=&quot;&quot;&gt;&lt;font color=&quot;#1a1a1a&quot;&gt;25W&amp;nbsp; 5A&lt;/font&gt;&lt;/b&gt;&lt;/div&gt;" style="text;html=1;align=center;verticalAlign=middle;resizable=0;points=[];autosize=1;strokeColor=none;fillColor=none;rotation=0;" vertex="1" parent="uXF_fPcZE920ryY0srwN-26">
          <mxGeometry x="3" y="27.95" width="90" height="40" as="geometry" />
        </mxCell>
        <mxCell id="uXF_fPcZE920ryY0srwN-1" value="&lt;font color=&quot;#1a1a1a&quot; style=&quot;font-size: 8px;&quot;&gt;&lt;b style=&quot;&quot;&gt;L&lt;/b&gt;&lt;/font&gt;" style="text;html=1;align=center;verticalAlign=middle;resizable=0;points=[];autosize=1;strokeColor=none;fillColor=none;rotation=0;" vertex="1" parent="uXF_fPcZE920ryY0srwN-26">
          <mxGeometry y="68" width="30" height="30" as="geometry" />
        </mxCell>
        <mxCell id="uXF_fPcZE920ryY0srwN-3" value="&lt;div&gt;&lt;font color=&quot;#1a1a1a&quot;&gt;&lt;span style=&quot;font-size: 8px;&quot;&gt;&lt;b&gt;GND&lt;/b&gt;&lt;/span&gt;&lt;/font&gt;&lt;/div&gt;" style="text;html=1;align=center;verticalAlign=middle;resizable=0;points=[];autosize=1;strokeColor=none;fillColor=none;rotation=0;" vertex="1" parent="uXF_fPcZE920ryY0srwN-26">
          <mxGeometry x="60" y="68" width="40" height="30" as="geometry" />
        </mxCell>
        <mxCell id="uXF_fPcZE920ryY0srwN-8" value="&lt;font color=&quot;#1a1a1a&quot;&gt;&lt;span style=&quot;font-size: 8px;&quot;&gt;&lt;b&gt;N&lt;/b&gt;&lt;/span&gt;&lt;/font&gt;" style="text;html=1;align=center;verticalAlign=middle;resizable=0;points=[];autosize=1;strokeColor=none;fillColor=none;rotation=0;" vertex="1" parent="uXF_fPcZE920ryY0srwN-26">
          <mxGeometry x="33" y="68" width="30" height="30" as="geometry" />
        </mxCell>
        <mxCell id="uXF_fPcZE920ryY0srwN-48" value="&lt;font color=&quot;#1a1a1a&quot;&gt;&lt;span style=&quot;font-size: 8px;&quot;&gt;&lt;b&gt;+&lt;/b&gt;&lt;/span&gt;&lt;/font&gt;" style="text;html=1;align=center;verticalAlign=middle;resizable=0;points=[];autosize=1;strokeColor=none;fillColor=none;rotation=0;" vertex="1" parent="uXF_fPcZE920ryY0srwN-26">
          <mxGeometry x="65.89000000000004" y="-2.0500000000000007" width="30" height="30" as="geometry" />
        </mxCell>
        <mxCell id="uXF_fPcZE920ryY0srwN-49" value="&lt;font style=&quot;font-size: 14px;&quot; color=&quot;#1a1a1a&quot;&gt;&lt;b style=&quot;&quot;&gt;-&lt;/b&gt;&lt;/font&gt;" style="text;html=1;align=center;verticalAlign=middle;resizable=0;points=[];autosize=1;strokeColor=none;fillColor=none;rotation=0;" vertex="1" parent="uXF_fPcZE920ryY0srwN-26">
          <mxGeometry x="2.842170943040401e-14" y="-2.0500000000000007" width="30" height="30" as="geometry" />
        </mxCell>
        <mxCell id="uXF_fPcZE920ryY0srwN-27" value="" style="group;rotation=0;" vertex="1" connectable="0" parent="1">
          <mxGeometry x="466.2" y="860" width="100.00000000000003" height="97.94999999999993" as="geometry" />
        </mxCell>
        <mxCell id="uXF_fPcZE920ryY0srwN-28" value="" style="whiteSpace=wrap;html=1;aspect=fixed;rotation=0;" vertex="1" parent="uXF_fPcZE920ryY0srwN-27">
          <mxGeometry width="95.89" height="95.89" as="geometry" />
        </mxCell>
        <mxCell id="uXF_fPcZE920ryY0srwN-29" value="&lt;b style=&quot;&quot;&gt;&lt;font color=&quot;#1a1a1a&quot;&gt;voeding 5V&lt;/font&gt;&lt;/b&gt;&lt;div&gt;&lt;b style=&quot;&quot;&gt;&lt;font color=&quot;#1a1a1a&quot;&gt;25W&amp;nbsp; 5A&lt;/font&gt;&lt;/b&gt;&lt;/div&gt;" style="text;html=1;align=center;verticalAlign=middle;resizable=0;points=[];autosize=1;strokeColor=none;fillColor=none;rotation=0;" vertex="1" parent="uXF_fPcZE920ryY0srwN-27">
          <mxGeometry x="2.95" y="26" width="90" height="40" as="geometry" />
        </mxCell>
        <mxCell id="uXF_fPcZE920ryY0srwN-30" value="&lt;font color=&quot;#1a1a1a&quot; style=&quot;font-size: 8px;&quot;&gt;&lt;b style=&quot;&quot;&gt;L&lt;/b&gt;&lt;/font&gt;" style="text;html=1;align=center;verticalAlign=middle;resizable=0;points=[];autosize=1;strokeColor=none;fillColor=none;rotation=0;" vertex="1" parent="uXF_fPcZE920ryY0srwN-27">
          <mxGeometry x="65.89" y="68" width="30" height="30" as="geometry" />
        </mxCell>
        <mxCell id="uXF_fPcZE920ryY0srwN-31" value="&lt;div&gt;&lt;font color=&quot;#1a1a1a&quot;&gt;&lt;span style=&quot;font-size: 8px;&quot;&gt;&lt;b&gt;GND&lt;/b&gt;&lt;/span&gt;&lt;/font&gt;&lt;/div&gt;" style="text;html=1;align=center;verticalAlign=middle;resizable=0;points=[];autosize=1;strokeColor=none;fillColor=none;rotation=0;" vertex="1" parent="uXF_fPcZE920ryY0srwN-27">
          <mxGeometry x="-5" y="68" width="40" height="30" as="geometry" />
        </mxCell>
        <mxCell id="uXF_fPcZE920ryY0srwN-32" value="&lt;font color=&quot;#1a1a1a&quot;&gt;&lt;span style=&quot;font-size: 8px;&quot;&gt;&lt;b&gt;N&lt;/b&gt;&lt;/span&gt;&lt;/font&gt;" style="text;html=1;align=center;verticalAlign=middle;resizable=0;points=[];autosize=1;strokeColor=none;fillColor=none;rotation=0;" vertex="1" parent="uXF_fPcZE920ryY0srwN-27">
          <mxGeometry x="33" y="68" width="30" height="30" as="geometry" />
        </mxCell>
        <mxCell id="uXF_fPcZE920ryY0srwN-86" style="edgeStyle=orthogonalEdgeStyle;rounded=0;orthogonalLoop=1;jettySize=auto;html=1;" edge="1" parent="uXF_fPcZE920ryY0srwN-27" source="uXF_fPcZE920ryY0srwN-46">
          <mxGeometry relative="1" as="geometry">
            <mxPoint x="213.8" y="-420" as="targetPoint" />
            <Array as="points">
              <mxPoint x="78" y="-50" />
              <mxPoint x="214" y="-50" />
            </Array>
          </mxGeometry>
        </mxCell>
        <mxCell id="uXF_fPcZE920ryY0srwN-46" value="&lt;font color=&quot;#1a1a1a&quot;&gt;&lt;span style=&quot;font-size: 8px;&quot;&gt;&lt;b&gt;+&lt;/b&gt;&lt;/span&gt;&lt;/font&gt;" style="text;html=1;align=center;verticalAlign=middle;resizable=0;points=[];autosize=1;strokeColor=none;fillColor=none;rotation=0;" vertex="1" parent="uXF_fPcZE920ryY0srwN-27">
          <mxGeometry x="63" y="-4" width="30" height="30" as="geometry" />
        </mxCell>
        <mxCell id="uXF_fPcZE920ryY0srwN-47" value="&lt;font style=&quot;font-size: 14px;&quot; color=&quot;#1a1a1a&quot;&gt;&lt;b style=&quot;&quot;&gt;-&lt;/b&gt;&lt;/font&gt;" style="text;html=1;align=center;verticalAlign=middle;resizable=0;points=[];autosize=1;strokeColor=none;fillColor=none;rotation=0;" vertex="1" parent="uXF_fPcZE920ryY0srwN-27">
          <mxGeometry x="5" y="-4" width="30" height="30" as="geometry" />
        </mxCell>
        <mxCell id="uXF_fPcZE920ryY0srwN-33" style="edgeStyle=orthogonalEdgeStyle;rounded=0;orthogonalLoop=1;jettySize=auto;html=1;" edge="1" parent="1" source="CK8r0wE4NduhVeLigVdj-1" target="uXF_fPcZE920ryY0srwN-1">
          <mxGeometry relative="1" as="geometry" />
        </mxCell>
        <mxCell id="uXF_fPcZE920ryY0srwN-34" style="edgeStyle=orthogonalEdgeStyle;rounded=0;orthogonalLoop=1;jettySize=auto;html=1;entryX=0.517;entryY=0.949;entryDx=0;entryDy=0;entryPerimeter=0;" edge="1" parent="1" source="CK8r0wE4NduhVeLigVdj-1" target="uXF_fPcZE920ryY0srwN-8">
          <mxGeometry relative="1" as="geometry" />
        </mxCell>
        <mxCell id="uXF_fPcZE920ryY0srwN-35" style="edgeStyle=orthogonalEdgeStyle;rounded=0;orthogonalLoop=1;jettySize=auto;html=1;entryX=0.513;entryY=0.949;entryDx=0;entryDy=0;entryPerimeter=0;" edge="1" parent="1" source="CK8r0wE4NduhVeLigVdj-1" target="uXF_fPcZE920ryY0srwN-3">
          <mxGeometry relative="1" as="geometry" />
        </mxCell>
        <mxCell id="uXF_fPcZE920ryY0srwN-42" style="edgeStyle=orthogonalEdgeStyle;rounded=0;orthogonalLoop=1;jettySize=auto;html=1;entryX=0.525;entryY=1.02;entryDx=0;entryDy=0;entryPerimeter=0;" edge="1" parent="1" source="uXF_fPcZE920ryY0srwN-3" target="uXF_fPcZE920ryY0srwN-31">
          <mxGeometry relative="1" as="geometry" />
        </mxCell>
        <mxCell id="uXF_fPcZE920ryY0srwN-43" style="edgeStyle=orthogonalEdgeStyle;rounded=0;orthogonalLoop=1;jettySize=auto;html=1;entryX=0.526;entryY=1.005;entryDx=0;entryDy=0;entryPerimeter=0;" edge="1" parent="1" source="uXF_fPcZE920ryY0srwN-8" target="uXF_fPcZE920ryY0srwN-32">
          <mxGeometry relative="1" as="geometry" />
        </mxCell>
        <mxCell id="uXF_fPcZE920ryY0srwN-44" style="edgeStyle=orthogonalEdgeStyle;rounded=0;orthogonalLoop=1;jettySize=auto;html=1;entryX=0.506;entryY=1.02;entryDx=0;entryDy=0;entryPerimeter=0;" edge="1" parent="1" source="uXF_fPcZE920ryY0srwN-1" target="uXF_fPcZE920ryY0srwN-30">
          <mxGeometry relative="1" as="geometry" />
        </mxCell>
        <mxCell id="uXF_fPcZE920ryY0srwN-45" value="&lt;font color=&quot;#1a1a1a&quot;&gt;&lt;span style=&quot;font-size: 8px;&quot;&gt;schroefklemmen x3&lt;/span&gt;&lt;/font&gt;" style="text;html=1;align=center;verticalAlign=middle;resizable=0;points=[];autosize=1;strokeColor=none;fillColor=none;" vertex="1" parent="1">
          <mxGeometry x="466.19999999999993" y="970" width="90" height="30" as="geometry" />
        </mxCell>
        <mxCell id="CK8r0wE4NduhVeLigVdj-8" value="" style="verticalLabelPosition=bottom;verticalAlign=top;html=1;shape=mxgraph.basic.rect;fillColor2=none;strokeWidth=1;size=30;indent=100;rotation=90;fillColor=#1A1A1A;strokeColor=none;" vertex="1" parent="1">
          <mxGeometry x="456.02" y="660" width="95.09" height="60" as="geometry" />
        </mxCell>
        <mxCell id="uXF_fPcZE920ryY0srwN-54" value="&lt;span style=&quot;font-size: 8px;&quot;&gt;&lt;b style=&quot;&quot;&gt;&lt;font color=&quot;#ffffff&quot;&gt;+&lt;/font&gt;&lt;/b&gt;&lt;/span&gt;" style="text;html=1;align=center;verticalAlign=middle;resizable=0;points=[];autosize=1;strokeColor=none;fillColor=none;rotation=0;" vertex="1" parent="1">
          <mxGeometry x="509.60999999999996" y="645" width="30" height="30" as="geometry" />
        </mxCell>
        <mxCell id="uXF_fPcZE920ryY0srwN-55" value="&lt;span style=&quot;font-size: 8px;&quot;&gt;&lt;b style=&quot;&quot;&gt;&lt;font color=&quot;#ffffff&quot;&gt;+&lt;/font&gt;&lt;/b&gt;&lt;/span&gt;" style="text;html=1;align=center;verticalAlign=middle;resizable=0;points=[];autosize=1;strokeColor=none;fillColor=none;rotation=0;" vertex="1" parent="1">
          <mxGeometry x="467.97999999999996" y="645" width="30" height="30" as="geometry" />
        </mxCell>
        <mxCell id="uXF_fPcZE920ryY0srwN-56" value="&lt;font color=&quot;#ffffff&quot;&gt;&lt;span style=&quot;font-size: 8px;&quot;&gt;&lt;b&gt;D&lt;/b&gt;&lt;/span&gt;&lt;/font&gt;" style="text;html=1;align=center;verticalAlign=middle;resizable=0;points=[];autosize=1;strokeColor=none;fillColor=none;rotation=0;" vertex="1" parent="1">
          <mxGeometry x="511.1099999999999" y="675" width="30" height="30" as="geometry" />
        </mxCell>
        <mxCell id="uXF_fPcZE920ryY0srwN-57" value="&lt;font color=&quot;#ffffff&quot;&gt;&lt;span style=&quot;font-size: 8px;&quot;&gt;&lt;b&gt;GND&lt;/b&gt;&lt;/span&gt;&lt;/font&gt;" style="text;html=1;align=center;verticalAlign=middle;resizable=0;points=[];autosize=1;strokeColor=none;fillColor=none;rotation=0;" vertex="1" parent="1">
          <mxGeometry x="502.97999999999985" y="705" width="40" height="30" as="geometry" />
        </mxCell>
        <mxCell id="uXF_fPcZE920ryY0srwN-58" style="edgeStyle=orthogonalEdgeStyle;rounded=0;orthogonalLoop=1;jettySize=auto;html=1;entryX=0.986;entryY=0.484;entryDx=0;entryDy=0;entryPerimeter=0;" edge="1" parent="1" source="uXF_fPcZE920ryY0srwN-46" target="uXF_fPcZE920ryY0srwN-54">
          <mxGeometry relative="1" as="geometry">
            <Array as="points">
              <mxPoint x="544" y="810" />
              <mxPoint x="680" y="810" />
              <mxPoint x="680" y="660" />
            </Array>
          </mxGeometry>
        </mxCell>
        <mxCell id="uXF_fPcZE920ryY0srwN-63" value="&lt;div&gt;&lt;br&gt;&lt;/div&gt;&lt;div&gt;&lt;br&gt;&lt;/div&gt;" style="edgeLabel;html=1;align=center;verticalAlign=middle;resizable=0;points=[];" vertex="1" connectable="0" parent="uXF_fPcZE920ryY0srwN-58">
          <mxGeometry x="0.4018" y="-1" relative="1" as="geometry">
            <mxPoint as="offset" />
          </mxGeometry>
        </mxCell>
        <mxCell id="uXF_fPcZE920ryY0srwN-62" style="edgeStyle=orthogonalEdgeStyle;rounded=0;orthogonalLoop=1;jettySize=auto;html=1;entryX=1.005;entryY=0.564;entryDx=0;entryDy=0;entryPerimeter=0;shape=link;" edge="1" parent="1" source="uXF_fPcZE920ryY0srwN-47" target="uXF_fPcZE920ryY0srwN-57">
          <mxGeometry relative="1" as="geometry">
            <Array as="points">
              <mxPoint x="486" y="790" />
              <mxPoint x="558" y="790" />
              <mxPoint x="558" y="722" />
            </Array>
          </mxGeometry>
        </mxCell>
        <mxCell id="uXF_fPcZE920ryY0srwN-64" value="&lt;font color=&quot;#ffffff&quot;&gt;&lt;span style=&quot;font-size: 8px;&quot;&gt;&lt;b&gt;D&lt;/b&gt;&lt;/span&gt;&lt;/font&gt;" style="text;html=1;align=center;verticalAlign=middle;resizable=0;points=[];autosize=1;strokeColor=none;fillColor=none;rotation=0;" vertex="1" parent="1">
          <mxGeometry x="467.97999999999985" y="675" width="30" height="30" as="geometry" />
        </mxCell>
        <mxCell id="uXF_fPcZE920ryY0srwN-65" value="&lt;font color=&quot;#ffffff&quot;&gt;&lt;span style=&quot;font-size: 8px;&quot;&gt;&lt;b&gt;GND&lt;/b&gt;&lt;/span&gt;&lt;/font&gt;" style="text;html=1;align=center;verticalAlign=middle;resizable=0;points=[];autosize=1;strokeColor=none;fillColor=none;rotation=0;" vertex="1" parent="1">
          <mxGeometry x="462.97999999999985" y="705" width="40" height="30" as="geometry" />
        </mxCell>
        <mxCell id="uXF_fPcZE920ryY0srwN-66" value="" style="verticalLabelPosition=bottom;verticalAlign=top;html=1;shape=mxgraph.basic.rect;fillColor2=none;strokeWidth=1;size=30;indent=100;rotation=90;fillColor=#1A1A1A;strokeColor=none;" vertex="1" parent="1">
          <mxGeometry x="261.02000000000004" y="660" width="95.09" height="60" as="geometry" />
        </mxCell>
        <mxCell id="uXF_fPcZE920ryY0srwN-70" value="&lt;font color=&quot;#ffffff&quot;&gt;&lt;span style=&quot;font-size: 8px;&quot;&gt;&lt;b&gt;GND&lt;/b&gt;&lt;/span&gt;&lt;/font&gt;" style="text;html=1;align=center;verticalAlign=middle;resizable=0;points=[];autosize=1;strokeColor=none;fillColor=none;rotation=0;" vertex="1" parent="1">
          <mxGeometry x="307.97999999999985" y="705" width="40" height="30" as="geometry" />
        </mxCell>
        <mxCell id="uXF_fPcZE920ryY0srwN-71" value="&lt;font color=&quot;#ffffff&quot;&gt;&lt;span style=&quot;font-size: 8px;&quot;&gt;&lt;b&gt;D&lt;/b&gt;&lt;/span&gt;&lt;/font&gt;" style="text;html=1;align=center;verticalAlign=middle;resizable=0;points=[];autosize=1;strokeColor=none;fillColor=none;rotation=0;" vertex="1" parent="1">
          <mxGeometry x="316.10999999999996" y="675" width="30" height="30" as="geometry" />
        </mxCell>
        <mxCell id="uXF_fPcZE920ryY0srwN-72" value="&lt;span style=&quot;font-size: 8px;&quot;&gt;&lt;b style=&quot;&quot;&gt;&lt;font color=&quot;#ffffff&quot;&gt;+&lt;/font&gt;&lt;/b&gt;&lt;/span&gt;" style="text;html=1;align=center;verticalAlign=middle;resizable=0;points=[];autosize=1;strokeColor=none;fillColor=none;rotation=0;" vertex="1" parent="1">
          <mxGeometry x="314.60999999999996" y="645" width="30" height="30" as="geometry" />
        </mxCell>
        <mxCell id="uXF_fPcZE920ryY0srwN-73" style="edgeStyle=orthogonalEdgeStyle;rounded=0;orthogonalLoop=1;jettySize=auto;html=1;entryX=0.72;entryY=0.5;entryDx=0;entryDy=0;entryPerimeter=0;" edge="1" parent="1" source="uXF_fPcZE920ryY0srwN-55" target="uXF_fPcZE920ryY0srwN-72">
          <mxGeometry relative="1" as="geometry" />
        </mxCell>
        <mxCell id="uXF_fPcZE920ryY0srwN-74" style="edgeStyle=orthogonalEdgeStyle;rounded=0;orthogonalLoop=1;jettySize=auto;html=1;entryX=0.67;entryY=0.5;entryDx=0;entryDy=0;entryPerimeter=0;" edge="1" parent="1" source="uXF_fPcZE920ryY0srwN-64" target="uXF_fPcZE920ryY0srwN-71">
          <mxGeometry relative="1" as="geometry" />
        </mxCell>
        <mxCell id="uXF_fPcZE920ryY0srwN-77" value="&lt;div&gt;&lt;span style=&quot;color: rgb(26, 26, 26); background-color: initial;&quot;&gt;&lt;font style=&quot;font-size: 8px;&quot;&gt;JST-SM&lt;/font&gt;&lt;/span&gt;&lt;br&gt;&lt;/div&gt;" style="text;html=1;align=center;verticalAlign=middle;resizable=0;points=[];autosize=1;strokeColor=none;fillColor=none;" vertex="1" parent="1">
          <mxGeometry x="341.2" y="630" width="50" height="30" as="geometry" />
        </mxCell>
        <mxCell id="uXF_fPcZE920ryY0srwN-78" value="&lt;div&gt;&lt;span style=&quot;color: rgb(26, 26, 26); background-color: initial;&quot;&gt;&lt;font style=&quot;font-size: 8px;&quot;&gt;JST-SM&lt;/font&gt;&lt;/span&gt;&lt;br&gt;&lt;/div&gt;" style="text;html=1;align=center;verticalAlign=middle;resizable=0;points=[];autosize=1;strokeColor=none;fillColor=none;" vertex="1" parent="1">
          <mxGeometry x="336.11" y="670" width="50" height="30" as="geometry" />
        </mxCell>
        <mxCell id="uXF_fPcZE920ryY0srwN-79" value="&lt;div&gt;&lt;span style=&quot;color: rgb(26, 26, 26); background-color: initial;&quot;&gt;&lt;font style=&quot;font-size: 8px;&quot;&gt;JST-SM&lt;/font&gt;&lt;/span&gt;&lt;br&gt;&lt;/div&gt;" style="text;html=1;align=center;verticalAlign=middle;resizable=0;points=[];autosize=1;strokeColor=none;fillColor=none;" vertex="1" parent="1">
          <mxGeometry x="336.11" y="720" width="50" height="30" as="geometry" />
        </mxCell>
        <mxCell id="uXF_fPcZE920ryY0srwN-80" value="&lt;div&gt;&lt;span style=&quot;color: rgb(26, 26, 26); background-color: initial;&quot;&gt;&lt;font style=&quot;font-size: 8px;&quot;&gt;JST-SM&lt;/font&gt;&lt;/span&gt;&lt;br&gt;&lt;/div&gt;" style="text;html=1;align=center;verticalAlign=middle;resizable=0;points=[];autosize=1;strokeColor=none;fillColor=none;" vertex="1" parent="1">
          <mxGeometry x="431.10999999999996" y="630" width="50" height="30" as="geometry" />
        </mxCell>
        <mxCell id="uXF_fPcZE920ryY0srwN-81" value="&lt;div&gt;&lt;span style=&quot;color: rgb(26, 26, 26); background-color: initial;&quot;&gt;&lt;font style=&quot;font-size: 8px;&quot;&gt;JST-SM&lt;/font&gt;&lt;/span&gt;&lt;br&gt;&lt;/div&gt;" style="text;html=1;align=center;verticalAlign=middle;resizable=0;points=[];autosize=1;strokeColor=none;fillColor=none;" vertex="1" parent="1">
          <mxGeometry x="426.2" y="670" width="50" height="30" as="geometry" />
        </mxCell>
        <mxCell id="uXF_fPcZE920ryY0srwN-82" value="&lt;div&gt;&lt;span style=&quot;color: rgb(26, 26, 26); background-color: initial;&quot;&gt;&lt;font style=&quot;font-size: 8px;&quot;&gt;JST-SM&lt;/font&gt;&lt;/span&gt;&lt;br&gt;&lt;/div&gt;" style="text;html=1;align=center;verticalAlign=middle;resizable=0;points=[];autosize=1;strokeColor=none;fillColor=none;" vertex="1" parent="1">
          <mxGeometry x="426.11" y="720" width="50" height="30" as="geometry" />
        </mxCell>
        <mxCell id="uXF_fPcZE920ryY0srwN-83" value="&lt;font color=&quot;#1a1a1a&quot;&gt;&lt;b&gt;ledstrip&lt;br&gt;5A&lt;/b&gt;&lt;/font&gt;" style="text;html=1;align=center;verticalAlign=middle;resizable=0;points=[];autosize=1;strokeColor=none;fillColor=none;" vertex="1" parent="1">
          <mxGeometry x="468.56" y="735" width="70" height="40" as="geometry" />
        </mxCell>
        <mxCell id="uXF_fPcZE920ryY0srwN-88" value="&lt;div&gt;&lt;font color=&quot;#1a1a1a&quot;&gt;&lt;span style=&quot;font-size: 8px;&quot;&gt;PIN&lt;/span&gt;&lt;/font&gt;&lt;/div&gt;" style="text;html=1;align=center;verticalAlign=middle;resizable=0;points=[];autosize=1;strokeColor=none;fillColor=none;" vertex="1" parent="1">
          <mxGeometry x="672.37" y="440" width="40" height="30" as="geometry" />
        </mxCell>
        <mxCell id="uXF_fPcZE920ryY0srwN-89" value="&lt;span style=&quot;font-size: 8px;&quot;&gt;&lt;b style=&quot;&quot;&gt;&lt;font color=&quot;#ffffff&quot;&gt;Vout&lt;/font&gt;&lt;/b&gt;&lt;/span&gt;" style="text;html=1;align=center;verticalAlign=middle;resizable=0;points=[];autosize=1;strokeColor=none;fillColor=none;" vertex="1" parent="1">
          <mxGeometry x="661.78" y="370" width="40" height="30" as="geometry" />
        </mxCell>
        <mxCell id="uXF_fPcZE920ryY0srwN-90" value="&lt;b style=&quot;&quot;&gt;&lt;font color=&quot;#1a1a1a&quot;&gt;voltage&lt;br&gt;regulator&lt;/font&gt;&lt;/b&gt;" style="text;html=1;align=left;verticalAlign=middle;resizable=0;points=[];autosize=1;strokeColor=none;fillColor=none;" vertex="1" parent="1">
          <mxGeometry x="740.0000000000001" y="390" width="80" height="40" as="geometry" />
        </mxCell>
        <mxCell id="uXF_fPcZE920ryY0srwN-91" value="&lt;font style=&quot;font-size: 14px;&quot; color=&quot;#1a1a1a&quot;&gt;&lt;b&gt;ESP32-C3&lt;br&gt;controller&lt;/b&gt;&lt;/font&gt;" style="text;html=1;align=center;verticalAlign=middle;resizable=0;points=[];autosize=1;strokeColor=none;fillColor=none;" vertex="1" parent="1">
          <mxGeometry x="370" y="250" width="90" height="50" as="geometry" />
        </mxCell>
        <mxCell id="uXF_fPcZE920ryY0srwN-92" value="&lt;div&gt;&lt;b style=&quot;font-size: 8px; background-color: initial;&quot;&gt;&lt;font color=&quot;#1a1a1a&quot;&gt;3.3V&lt;/font&gt;&lt;/b&gt;&lt;br&gt;&lt;/div&gt;" style="text;html=1;align=center;verticalAlign=middle;resizable=0;points=[];autosize=1;strokeColor=none;fillColor=none;" vertex="1" parent="1">
          <mxGeometry x="465.00000000000006" y="260" width="40" height="30" as="geometry" />
        </mxCell>
        <mxCell id="uXF_fPcZE920ryY0srwN-94" value="&lt;font color=&quot;#ff0000&quot; style=&quot;font-size: 12px;&quot;&gt;&lt;i style=&quot;&quot;&gt;&lt;b style=&quot;&quot;&gt;3.3V&lt;/b&gt;&lt;/i&gt;&lt;/font&gt;" style="text;html=1;align=center;verticalAlign=middle;resizable=0;points=[];autosize=1;strokeColor=none;fillColor=none;" vertex="1" parent="1">
          <mxGeometry x="620" y="250" width="50" height="30" as="geometry" />
        </mxCell>
        <mxCell id="uXF_fPcZE920ryY0srwN-95" value="&lt;div&gt;&lt;font color=&quot;#1a1a1a&quot;&gt;&lt;span style=&quot;font-size: 8px;&quot;&gt;PIN&lt;/span&gt;&lt;/font&gt;&lt;/div&gt;" style="text;html=1;align=center;verticalAlign=middle;resizable=0;points=[];autosize=1;strokeColor=none;fillColor=none;" vertex="1" parent="1">
          <mxGeometry x="675" y="350" width="40" height="30" as="geometry" />
        </mxCell>
        <mxCell id="uXF_fPcZE920ryY0srwN-96" value="&lt;div&gt;&lt;font color=&quot;#1a1a1a&quot;&gt;&lt;span style=&quot;font-size: 8px;&quot;&gt;Vcc PIN&lt;/span&gt;&lt;/font&gt;&lt;/div&gt;" style="text;html=1;align=center;verticalAlign=middle;resizable=0;points=[];autosize=1;strokeColor=none;fillColor=none;" vertex="1" parent="1">
          <mxGeometry x="499.61" y="250" width="50" height="30" as="geometry" />
        </mxCell>
        <mxCell id="uXF_fPcZE920ryY0srwN-97" value="" style="endArrow=classic;startArrow=classic;html=1;rounded=0;shape=flexArrow;width=3.5555555555555554;startSize=5.4;startWidth=10.716049382716049;endWidth=10.716049382716049;endSize=5.4;fillColor=#1A1A1A;strokeColor=none;" edge="1" parent="1">
          <mxGeometry width="50" height="50" relative="1" as="geometry">
            <mxPoint x="462.98" y="230" as="sourcePoint" />
            <mxPoint x="462.98" y="150" as="targetPoint" />
          </mxGeometry>
        </mxCell>
        <mxCell id="uXF_fPcZE920ryY0srwN-99" value="" style="endArrow=classic;startArrow=classic;html=1;rounded=0;shape=flexArrow;width=3.5555555555555554;startSize=5.4;startWidth=10.716049382716049;endWidth=10.716049382716049;endSize=5.4;fillColor=#1A1A1A;strokeColor=none;" edge="1" parent="1">
          <mxGeometry width="50" height="50" relative="1" as="geometry">
            <mxPoint x="356.11" y="230" as="sourcePoint" />
            <mxPoint x="356.11" y="150" as="targetPoint" />
          </mxGeometry>
        </mxCell>
        <mxCell id="uXF_fPcZE920ryY0srwN-100" value="&lt;font color=&quot;#1a1a1a&quot;&gt;&lt;span style=&quot;font-size: 8px;&quot;&gt;schroefklem&lt;/span&gt;&lt;/font&gt;" style="text;html=1;align=center;verticalAlign=middle;resizable=0;points=[];autosize=1;strokeColor=none;fillColor=none;" vertex="1" parent="1">
          <mxGeometry x="424.99999999999994" y="830" width="70" height="30" as="geometry" />
        </mxCell>
        <mxCell id="uXF_fPcZE920ryY0srwN-101" value="&lt;font color=&quot;#1a1a1a&quot;&gt;&lt;span style=&quot;font-size: 8px;&quot;&gt;schroefklem&lt;/span&gt;&lt;/font&gt;" style="text;html=1;align=center;verticalAlign=middle;resizable=0;points=[];autosize=1;strokeColor=none;fillColor=none;" vertex="1" parent="1">
          <mxGeometry x="536.1099999999999" y="830" width="70" height="30" as="geometry" />
        </mxCell>
        <mxCell id="uXF_fPcZE920ryY0srwN-102" value="&lt;font color=&quot;#ff0000&quot; style=&quot;font-size: 12px;&quot;&gt;&lt;i style=&quot;&quot;&gt;&lt;b style=&quot;&quot;&gt;5V&lt;/b&gt;&lt;/i&gt;&lt;/font&gt;" style="text;html=1;align=center;verticalAlign=middle;resizable=0;points=[];autosize=1;strokeColor=none;fillColor=none;" vertex="1" parent="1">
          <mxGeometry x="640" y="630" width="40" height="30" as="geometry" />
        </mxCell>
        <mxCell id="uXF_fPcZE920ryY0srwN-103" value="&lt;font color=&quot;#ff0000&quot; style=&quot;font-size: 12px;&quot;&gt;&lt;i style=&quot;&quot;&gt;&lt;b style=&quot;&quot;&gt;5V&lt;/b&gt;&lt;/i&gt;&lt;/font&gt;" style="text;html=1;align=center;verticalAlign=middle;resizable=0;points=[];autosize=1;strokeColor=none;fillColor=none;" vertex="1" parent="1">
          <mxGeometry x="391.11" y="630" width="40" height="30" as="geometry" />
        </mxCell>
        <mxCell id="uXF_fPcZE920ryY0srwN-104" value="&lt;div&gt;&lt;b style=&quot;font-size: 8px; background-color: initial;&quot;&gt;&lt;font color=&quot;#1a1a1a&quot;&gt;2&lt;/font&gt;&lt;/b&gt;&lt;br&gt;&lt;/div&gt;" style="text;html=1;align=center;verticalAlign=middle;resizable=0;points=[];autosize=1;strokeColor=none;fillColor=none;" vertex="1" parent="1">
          <mxGeometry x="341.11" y="225" width="30" height="30" as="geometry" />
        </mxCell>
        <mxCell id="uXF_fPcZE920ryY0srwN-105" value="&lt;div&gt;&lt;b style=&quot;font-size: 8px; background-color: initial;&quot;&gt;&lt;font color=&quot;#1a1a1a&quot;&gt;3&lt;/font&gt;&lt;/b&gt;&lt;/div&gt;" style="text;html=1;align=center;verticalAlign=middle;resizable=0;points=[];autosize=1;strokeColor=none;fillColor=none;" vertex="1" parent="1">
          <mxGeometry x="395" y="225" width="30" height="30" as="geometry" />
        </mxCell>
        <mxCell id="uXF_fPcZE920ryY0srwN-106" value="&lt;div&gt;&lt;b style=&quot;font-size: 8px; background-color: initial;&quot;&gt;&lt;font color=&quot;#1a1a1a&quot;&gt;5&lt;/font&gt;&lt;/b&gt;&lt;/div&gt;" style="text;html=1;align=center;verticalAlign=middle;resizable=0;points=[];autosize=1;strokeColor=none;fillColor=none;" vertex="1" parent="1">
          <mxGeometry x="446.2" y="225" width="30" height="30" as="geometry" />
        </mxCell>
        <mxCell id="uXF_fPcZE920ryY0srwN-107" value="&lt;div&gt;&lt;font color=&quot;#1a1a1a&quot;&gt;&lt;span style=&quot;font-size: 8px;&quot;&gt;GPIO&lt;/span&gt;&lt;/font&gt;&lt;/div&gt;" style="text;html=1;align=center;verticalAlign=middle;resizable=0;points=[];autosize=1;strokeColor=none;fillColor=none;" vertex="1" parent="1">
          <mxGeometry x="462.98" y="200" width="40" height="30" as="geometry" />
        </mxCell>
        <mxCell id="uXF_fPcZE920ryY0srwN-108" value="&lt;div&gt;&lt;font color=&quot;#1a1a1a&quot;&gt;&lt;span style=&quot;font-size: 8px;&quot;&gt;GPIO&lt;/span&gt;&lt;/font&gt;&lt;/div&gt;" style="text;html=1;align=center;verticalAlign=middle;resizable=0;points=[];autosize=1;strokeColor=none;fillColor=none;" vertex="1" parent="1">
          <mxGeometry x="406.20000000000005" y="200" width="40" height="30" as="geometry" />
        </mxCell>
        <mxCell id="uXF_fPcZE920ryY0srwN-109" value="&lt;div&gt;&lt;font color=&quot;#1a1a1a&quot;&gt;&lt;span style=&quot;font-size: 8px;&quot;&gt;GPIO&lt;/span&gt;&lt;/font&gt;&lt;/div&gt;" style="text;html=1;align=center;verticalAlign=middle;resizable=0;points=[];autosize=1;strokeColor=none;fillColor=none;" vertex="1" parent="1">
          <mxGeometry x="354.91" y="200" width="40" height="30" as="geometry" />
        </mxCell>
        <mxCell id="buvlqqXlpn2Jo7uIdP7t-1" value="&lt;font color=&quot;#1a1a1a&quot;&gt;&lt;span style=&quot;font-size: 8px;&quot;&gt;PIN&lt;/span&gt;&lt;/font&gt;" style="text;html=1;align=center;verticalAlign=middle;resizable=0;points=[];autosize=1;strokeColor=none;fillColor=none;" vertex="1" parent="1">
          <mxGeometry x="462.98" y="140" width="40" height="30" as="geometry" />
        </mxCell>
        <mxCell id="buvlqqXlpn2Jo7uIdP7t-2" value="&lt;font color=&quot;#1a1a1a&quot;&gt;&lt;span style=&quot;font-size: 8px;&quot;&gt;PIN&lt;/span&gt;&lt;/font&gt;" style="text;html=1;align=center;verticalAlign=middle;resizable=0;points=[];autosize=1;strokeColor=none;fillColor=none;" vertex="1" parent="1">
          <mxGeometry x="406.20000000000005" y="140" width="40" height="30" as="geometry" />
        </mxCell>
        <mxCell id="buvlqqXlpn2Jo7uIdP7t-3" value="&lt;font color=&quot;#1a1a1a&quot;&gt;&lt;span style=&quot;font-size: 8px;&quot;&gt;PIN&lt;/span&gt;&lt;/font&gt;" style="text;html=1;align=center;verticalAlign=middle;resizable=0;points=[];autosize=1;strokeColor=none;fillColor=none;" vertex="1" parent="1">
          <mxGeometry x="352.41" y="140" width="40" height="30" as="geometry" />
        </mxCell>
        <mxCell id="buvlqqXlpn2Jo7uIdP7t-7" value="&lt;div&gt;&lt;b style=&quot;font-size: 8px; background-color: initial;&quot;&gt;&lt;font color=&quot;#1a1a1a&quot;&gt;GND&lt;/font&gt;&lt;/b&gt;&lt;br&gt;&lt;/div&gt;" style="text;html=1;align=center;verticalAlign=middle;resizable=0;points=[];autosize=1;strokeColor=none;fillColor=none;" vertex="1" parent="1">
          <mxGeometry x="316.11000000000007" y="260" width="40" height="30" as="geometry" />
        </mxCell>
        <mxCell id="buvlqqXlpn2Jo7uIdP7t-8" value="&lt;div&gt;&lt;font color=&quot;#1a1a1a&quot;&gt;&lt;span style=&quot;font-size: 8px;&quot;&gt;PIN&lt;/span&gt;&lt;/font&gt;&lt;/div&gt;" style="text;html=1;align=center;verticalAlign=middle;resizable=0;points=[];autosize=1;strokeColor=none;fillColor=none;" vertex="1" parent="1">
          <mxGeometry x="288.56000000000006" y="250" width="40" height="30" as="geometry" />
        </mxCell>
        <mxCell id="buvlqqXlpn2Jo7uIdP7t-20" style="edgeStyle=orthogonalEdgeStyle;rounded=0;orthogonalLoop=1;jettySize=auto;html=1;entryX=-0.023;entryY=0.658;entryDx=0;entryDy=0;entryPerimeter=0;" edge="1" parent="1" source="buvlqqXlpn2Jo7uIdP7t-9" target="CK8r0wE4NduhVeLigVdj-56">
          <mxGeometry relative="1" as="geometry">
            <mxPoint x="366.1100000000001" y="500" as="targetPoint" />
            <Array as="points">
              <mxPoint x="350" y="500" />
            </Array>
          </mxGeometry>
        </mxCell>
        <mxCell id="buvlqqXlpn2Jo7uIdP7t-9" value="&lt;div&gt;&lt;b style=&quot;font-size: 8px; background-color: initial;&quot;&gt;&lt;font color=&quot;#1a1a1a&quot;&gt;3.3V&lt;/font&gt;&lt;/b&gt;&lt;br&gt;&lt;/div&gt;" style="text;html=1;align=center;verticalAlign=middle;resizable=0;points=[];autosize=1;strokeColor=none;fillColor=none;" vertex="1" parent="1">
          <mxGeometry x="332.9800000000001" y="290" width="40" height="30" as="geometry" />
        </mxCell>
        <mxCell id="buvlqqXlpn2Jo7uIdP7t-15" value="&lt;div&gt;&lt;span style=&quot;font-size: 8px; background-color: initial;&quot;&gt;&lt;font style=&quot;&quot; color=&quot;#1a1a1a&quot;&gt;GND&lt;/font&gt;&lt;/span&gt;&lt;br&gt;&lt;/div&gt;" style="text;html=1;align=center;verticalAlign=middle;resizable=0;points=[];autosize=1;strokeColor=none;fillColor=none;" vertex="1" parent="1">
          <mxGeometry x="347.9800000000001" y="80" width="40" height="30" as="geometry" />
        </mxCell>
        <mxCell id="buvlqqXlpn2Jo7uIdP7t-16" value="&lt;div&gt;&lt;span style=&quot;font-size: 8px; background-color: initial;&quot;&gt;&lt;font style=&quot;&quot; color=&quot;#1a1a1a&quot;&gt;GND&lt;/font&gt;&lt;/span&gt;&lt;br&gt;&lt;/div&gt;" style="text;html=1;align=center;verticalAlign=middle;resizable=0;points=[];autosize=1;strokeColor=none;fillColor=none;" vertex="1" parent="1">
          <mxGeometry x="405.00000000000006" y="80" width="40" height="30" as="geometry" />
        </mxCell>
        <mxCell id="buvlqqXlpn2Jo7uIdP7t-17" value="&lt;div&gt;&lt;span style=&quot;font-size: 8px; background-color: initial;&quot;&gt;&lt;font style=&quot;&quot; color=&quot;#1a1a1a&quot;&gt;GND&lt;/font&gt;&lt;/span&gt;&lt;br&gt;&lt;/div&gt;" style="text;html=1;align=center;verticalAlign=middle;resizable=0;points=[];autosize=1;strokeColor=none;fillColor=none;" vertex="1" parent="1">
          <mxGeometry x="457.9800000000001" y="80" width="40" height="30" as="geometry" />
        </mxCell>
        <mxCell id="buvlqqXlpn2Jo7uIdP7t-18" value="&lt;div&gt;&lt;font color=&quot;#1a1a1a&quot;&gt;&lt;span style=&quot;font-size: 8px;&quot;&gt;Vcc PIN&lt;/span&gt;&lt;/font&gt;&lt;/div&gt;" style="text;html=1;align=center;verticalAlign=middle;resizable=0;points=[];autosize=1;strokeColor=none;fillColor=none;" vertex="1" parent="1">
          <mxGeometry x="344.61" y="320" width="50" height="30" as="geometry" />
        </mxCell>
        <mxCell id="buvlqqXlpn2Jo7uIdP7t-19" value="&lt;font color=&quot;#ff0000&quot; style=&quot;font-size: 12px;&quot;&gt;&lt;i style=&quot;&quot;&gt;&lt;b style=&quot;&quot;&gt;3.3V&lt;/b&gt;&lt;/i&gt;&lt;/font&gt;" style="text;html=1;align=center;verticalAlign=middle;resizable=0;points=[];autosize=1;strokeColor=none;fillColor=none;" vertex="1" parent="1">
          <mxGeometry x="306.11" y="460" width="50" height="30" as="geometry" />
        </mxCell>
        <mxCell id="CK8r0wE4NduhVeLigVdj-56" value="" style="verticalLabelPosition=bottom;verticalAlign=top;html=1;shape=mxgraph.basic.rect;fillColor2=none;strokeWidth=1;size=20;indent=5;fillColor=#1A1A1A;strokeColor=none;" vertex="1" parent="1">
          <mxGeometry x="399.21" y="460" width="113.8" height="60" as="geometry" />
        </mxCell>
        <mxCell id="buvlqqXlpn2Jo7uIdP7t-21" value="&lt;div&gt;&lt;b style=&quot;font-size: 8px; background-color: initial;&quot;&gt;&lt;font color=&quot;#ffffff&quot;&gt;L1&lt;/font&gt;&lt;/b&gt;&lt;br&gt;&lt;/div&gt;" style="text;html=1;align=center;verticalAlign=middle;resizable=0;points=[];autosize=1;strokeColor=none;fillColor=none;" vertex="1" parent="1">
          <mxGeometry x="399.9100000000001" y="480" width="30" height="30" as="geometry" />
        </mxCell>
        <mxCell id="buvlqqXlpn2Jo7uIdP7t-23" style="edgeStyle=orthogonalEdgeStyle;rounded=0;orthogonalLoop=1;jettySize=auto;html=1;" edge="1" parent="1" source="buvlqqXlpn2Jo7uIdP7t-22" target="uXF_fPcZE920ryY0srwN-56">
          <mxGeometry relative="1" as="geometry">
            <mxPoint x="570" y="700" as="targetPoint" />
            <Array as="points">
              <mxPoint x="610" y="495" />
              <mxPoint x="610" y="690" />
            </Array>
          </mxGeometry>
        </mxCell>
        <mxCell id="buvlqqXlpn2Jo7uIdP7t-22" value="&lt;div&gt;&lt;span style=&quot;font-size: 8px;&quot;&gt;&lt;b style=&quot;&quot;&gt;&lt;font color=&quot;#ffffff&quot;&gt;H1&lt;/font&gt;&lt;/b&gt;&lt;/span&gt;&lt;/div&gt;" style="text;html=1;align=center;verticalAlign=middle;resizable=0;points=[];autosize=1;strokeColor=none;fillColor=none;" vertex="1" parent="1">
          <mxGeometry x="483.0100000000001" y="480" width="30" height="30" as="geometry" />
        </mxCell>
        <mxCell id="buvlqqXlpn2Jo7uIdP7t-24" value="&lt;div&gt;&lt;span style=&quot;color: rgb(26, 26, 26); background-color: initial;&quot;&gt;&lt;font style=&quot;font-size: 8px;&quot;&gt;JST-SM&lt;/font&gt;&lt;/span&gt;&lt;br&gt;&lt;/div&gt;" style="text;html=1;align=center;verticalAlign=middle;resizable=0;points=[];autosize=1;strokeColor=none;fillColor=none;" vertex="1" parent="1">
          <mxGeometry x="546.11" y="670" width="50" height="30" as="geometry" />
        </mxCell>
        <mxCell id="buvlqqXlpn2Jo7uIdP7t-25" value="&lt;div&gt;&lt;span style=&quot;font-size: 8px;&quot;&gt;&lt;b style=&quot;&quot;&gt;&lt;font color=&quot;#ffffff&quot;&gt;GND&lt;/font&gt;&lt;/b&gt;&lt;/span&gt;&lt;/div&gt;" style="text;html=1;align=center;verticalAlign=middle;resizable=0;points=[];autosize=1;strokeColor=none;fillColor=none;" vertex="1" parent="1">
          <mxGeometry x="476.2000000000001" y="460" width="40" height="30" as="geometry" />
        </mxCell>
        <mxCell id="buvlqqXlpn2Jo7uIdP7t-28" style="edgeStyle=orthogonalEdgeStyle;rounded=0;orthogonalLoop=1;jettySize=auto;html=1;fillColor=#1A1A1A;shape=link;" edge="1" parent="1" source="buvlqqXlpn2Jo7uIdP7t-26">
          <mxGeometry relative="1" as="geometry">
            <mxPoint x="415.0000000000001" y="410" as="targetPoint" />
          </mxGeometry>
        </mxCell>
        <mxCell id="buvlqqXlpn2Jo7uIdP7t-26" value="&lt;div&gt;&lt;span style=&quot;font-size: 8px;&quot;&gt;&lt;b style=&quot;&quot;&gt;&lt;font color=&quot;#ffffff&quot;&gt;GND&lt;/font&gt;&lt;/b&gt;&lt;/span&gt;&lt;/div&gt;" style="text;html=1;align=center;verticalAlign=middle;resizable=0;points=[];autosize=1;strokeColor=none;fillColor=none;" vertex="1" parent="1">
          <mxGeometry x="395.0000000000001" y="460" width="40" height="30" as="geometry" />
        </mxCell>
        <mxCell id="buvlqqXlpn2Jo7uIdP7t-29" value="&lt;font color=&quot;#ff0000&quot; style=&quot;font-size: 12px;&quot;&gt;&lt;i style=&quot;&quot;&gt;&lt;b style=&quot;&quot;&gt;5V&lt;/b&gt;&lt;/i&gt;&lt;/font&gt;" style="text;html=1;align=center;verticalAlign=middle;resizable=0;points=[];autosize=1;strokeColor=none;fillColor=none;" vertex="1" parent="1">
          <mxGeometry x="590" y="470" width="40" height="30" as="geometry" />
        </mxCell>
        <mxCell id="buvlqqXlpn2Jo7uIdP7t-37" value="&lt;font color=&quot;#1a1a1a&quot;&gt;&lt;b&gt;level shifter&lt;/b&gt;&lt;/font&gt;" style="text;html=1;align=center;verticalAlign=middle;resizable=0;points=[];autosize=1;strokeColor=none;fillColor=none;" vertex="1" parent="1">
          <mxGeometry x="411.1100000000001" y="520" width="90" height="30" as="geometry" />
        </mxCell>
        <mxCell id="buvlqqXlpn2Jo7uIdP7t-38" value="&lt;font color=&quot;#ff0000&quot; style=&quot;font-size: 12px;&quot;&gt;&lt;i style=&quot;&quot;&gt;&lt;b style=&quot;&quot;&gt;3.3V&lt;/b&gt;&lt;/i&gt;&lt;/font&gt;" style="text;html=1;align=center;verticalAlign=middle;resizable=0;points=[];autosize=1;strokeColor=none;fillColor=none;" vertex="1" parent="1">
          <mxGeometry x="288.56" y="160" width="50" height="30" as="geometry" />
        </mxCell>
        <mxCell id="buvlqqXlpn2Jo7uIdP7t-39" value="&lt;div&gt;&lt;font color=&quot;#1a1a1a&quot;&gt;&lt;span style=&quot;font-size: 8px;&quot;&gt;PIN&lt;/span&gt;&lt;/font&gt;&lt;/div&gt;" style="text;html=1;align=center;verticalAlign=middle;resizable=0;points=[];autosize=1;strokeColor=none;fillColor=none;" vertex="1" parent="1">
          <mxGeometry x="590.0000000000001" y="380" width="40" height="30" as="geometry" />
        </mxCell>
        <mxCell id="buvlqqXlpn2Jo7uIdP7t-40" value="&lt;div&gt;&lt;font color=&quot;#1a1a1a&quot;&gt;&lt;span style=&quot;font-size: 8px;&quot;&gt;PIN&lt;/span&gt;&lt;/font&gt;&lt;/div&gt;" style="text;html=1;align=center;verticalAlign=middle;resizable=0;points=[];autosize=1;strokeColor=none;fillColor=none;" vertex="1" parent="1">
          <mxGeometry x="495" y="430" width="40" height="30" as="geometry" />
        </mxCell>
        <mxCell id="buvlqqXlpn2Jo7uIdP7t-41" value="&lt;div&gt;&lt;font color=&quot;#1a1a1a&quot;&gt;&lt;span style=&quot;font-size: 8px;&quot;&gt;PIN&lt;/span&gt;&lt;/font&gt;&lt;/div&gt;" style="text;html=1;align=center;verticalAlign=middle;resizable=0;points=[];autosize=1;strokeColor=none;fillColor=none;" vertex="1" parent="1">
          <mxGeometry x="376.11" y="430" width="40" height="30" as="geometry" />
        </mxCell>
        <mxCell id="buvlqqXlpn2Jo7uIdP7t-42" value="&lt;div&gt;&lt;font color=&quot;#1a1a1a&quot;&gt;&lt;span style=&quot;font-size: 8px;&quot;&gt;PIN&lt;/span&gt;&lt;/font&gt;&lt;/div&gt;" style="text;html=1;align=center;verticalAlign=middle;resizable=0;points=[];autosize=1;strokeColor=none;fillColor=none;" vertex="1" parent="1">
          <mxGeometry x="365" y="500" width="40" height="30" as="geometry" />
        </mxCell>
        <mxCell id="buvlqqXlpn2Jo7uIdP7t-43" value="&lt;div&gt;&lt;font color=&quot;#1a1a1a&quot;&gt;&lt;span style=&quot;font-size: 8px;&quot;&gt;PIN&lt;/span&gt;&lt;/font&gt;&lt;/div&gt;" style="text;html=1;align=center;verticalAlign=middle;resizable=0;points=[];autosize=1;strokeColor=none;fillColor=none;" vertex="1" parent="1">
          <mxGeometry x="513.01" y="490" width="40" height="30" as="geometry" />
        </mxCell>
      </root>
    </mxGraphModel>
  </diagram>
</mxfile>
